# xmcd
#
# Track frame offsets:
#	150
#	12200
#	23257
#	32295
#	41300
#	52015
#	62052
#	74255
#	86067
#	101815
#	112867
#	124910
#	135697
#	145280
#	153315
#	168315
#	180085
#	191370
#	203322
#	217982
#	228400
#
# Disc length: 3227 seconds
#
# Revision: 1
# Processed by: cddbd v1.4PL0 Copyright (c) Steve Scherf et al.
# Submitted via: audiograbber 1.81.03
#
DISCID=060c9915
DTITLE=James Carr - A Man Needs a Woman
DYEAR=1900
DGENRE=
TTITLE0=A Man Needs a woman
TTITLE1=Stronger Than Love
TTITLE2=A Losing Game
TTITLE3=I'm a Fool for You
TTITLE4=Can't Help Myself
TTITLE5=Gonna Send You Back to Georgia
TTITLE6=Moor Love
TTITLE7=You Didn't Know it But You Had Me
TTITLE8=A Woman is a Man's Best Friend
TTITLE9=Sowed Love and Reaped a Headache
TTITLE10=What I Can Call My Own
TTITLE11=Life Time of a Man
TTITLE12=Your Love Made a "U" Turn
TTITLE13=You Gatta Have Soul
TTITLE14=Love Attack
TTITLE15=Pouring Water on a Drowning Man
TTITLE16=Life Turned Her That Way
TTITLE17=A Message to Young Lovers
TTITLE18=That's the Way Love Turned Out for Me
TTITLE19=Freedom Train
TTITLE20=Hold On
EXTD=
EXTT0=
EXTT1=
EXTT2=
EXTT3=
EXTT4=
EXTT5=
EXTT6=
EXTT7=
EXTT8=
EXTT9=
EXTT10=
EXTT11=
EXTT12=
EXTT13=
EXTT14=
EXTT15=
EXTT16=
EXTT17=
EXTT18=
EXTT19=
EXTT20=
PLAYORDER=
